Coordinates
version=1
nRows=10
nColumns=40
inDegrees=yes

Units are S.I. units (second, meters, Newtons, ...)
Angles are in degrees.

endheader
time	pelvis_tilt	pelvis_list	pelvis_rotation	pelvis_tx	pelvis_ty	pelvis_tz	hip_flexion_r	hip_adduction_r	hip_rotation_r	knee_angle_r	knee_angle_r_beta	ankle_angle_r	subtalar_angle_r	mtp_angle_r	hip_flexion_l	hip_adduction_l	hip_rotation_l	knee_angle_l	knee_angle_l_beta	ankle_angle_l	subtalar_angle_l	mtp_angle_l	lumbar_extension	lumbar_bending	lumbar_rotation	arm_flex_r	arm_add_r	arm_rot_r	elbow_flex_r	pro_sup_r	wrist_flex_r	wrist_dev_r	arm_flex_l	arm_add_l	arm_rot_l	elbow_flex_l	pro_sup_l	wrist_flex_l	wrist_dev_l
     13.29000000	     -2.49990442	     -2.00721751	     -2.16527351	      1.01054256	      0.93377853	      0.41778726	     38.46110445	     -7.53536929	     -6.79452299	     60.98806472	     60.98806472	     -1.61569259	    -17.77557135	      5.92824175	     10.87438402	     -2.75176746	    -10.07859981	     17.51568706	     17.51568706	     10.64265338	    -11.70887328	     -8.54027495	    -14.36696174	      1.76644064	      1.74058252	     -5.39926926	    -14.09374983	     -6.79856131	     58.15488771	     46.17843679	      0.00000000	      0.00000000	     18.80286378	    -14.67157783	      4.72932858	     54.83835067	     46.36747121	      0.00000000	      0.00000000
     13.30171429	     -2.61380565	     -2.02603639	     -2.38426597	      1.00969441	      0.93393214	      0.41763380	     38.67357801	     -7.25624476	     -6.72879465	     57.27944140	     57.27944140	     -1.92370169	    -17.25356391	      4.84519938	     10.05472643	     -2.69251288	    -10.33351593	     16.76338922	     16.76338922	     10.70633182	    -11.44440860	     -9.05116660	    -14.42415512	      1.83437577	      1.86055404	     -5.59392444	    -14.22857476	     -7.03529135	     52.80963499	     46.33411538	      0.00000000	      0.00000000	     19.83342336	    -15.06612778	      4.51017990	     57.93584203	     46.46433113	      0.00000000	      0.00000000
     13.31342857	     -2.69184668	     -2.05867736	     -2.56946410	      1.00899120	      0.93400855	      0.41754267	     38.56944216	     -6.98882128	     -6.80456950	     53.10890671	     53.10890671	     -2.36610677	    -16.58920072	      3.33206059	      9.22369897	     -2.64866749	    -10.56564320	     16.07097536	     16.07097536	     10.76658828	    -11.23101300	     -9.61807951	    -14.54429144	      1.91697344	      1.75423563	     -5.41776315	    -14.31568567	     -7.34424973	     47.32165251	     46.49068218	      0.00000000	      0.00000000	     20.56932092	    -15.60766945	      4.12093971	     61.30600366	     46.58804125	      0.00000000	      0.00000000
     13.32514286	     -2.82445315	     -2.06248911	     -2.74801162	      1.00853318	      0.93384117	      0.41750025	     38.28743158	     -6.72373928	     -6.89479196	     48.58379745	     48.58379745	     -2.71422904	    -15.59440422	      1.72312290	      8.43747669	     -2.58000182	    -10.81580866	     15.37822077	     15.37822077	     10.83143303	    -10.94551233	    -10.11855685	    -14.55546193	      2.00047954	      1.70735692	     -5.48712200	    -14.50046458	     -7.65155979	     42.49268705	     46.61785512	      0.00000000	      0.00000000	     21.28970306	    -15.97803195	      3.59567274	     64.68536967	     46.73114014	      0.00000000	      0.00000000
     13.33685714	     -2.89853339	     -2.04812267	     -2.87825242	      1.00826586	      0.93355121	      0.41743856	     37.75942523	     -6.52341095	     -7.12804324	     43.87348573	     43.87348573	     -2.43642337	    -13.92532156	      1.71255881	      7.64621637	     -2.49037419	    -11.02313584	     14.82315278	     14.82315278	     11.10950617	    -10.60833411	    -10.28702357	    -14.64694040	      2.09950849	      2.31639732	     -6.95342647	    -14.99248390	     -7.67743812	     40.49158072	     46.67142185	      0.00000000	      0.00000000	     22.72919875	    -15.73213112	      3.31250072	     66.89833378	     46.80507139	      0.00000000	      0.00000000
     13.34857143	     -2.99745302	     -1.85977040	     -3.01008018	      1.00833400	      0.93299525	      0.41743751	     37.05571201	     -6.53156213	     -7.55356939	     38.93522216	     38.93522216	     -2.35778372	    -11.91862046	      0.98173440	      6.80396983	     -2.22148389	    -11.43675420	     14.13681071	     14.13681071	     11.25981384	    -10.08881660	    -10.80030606	    -14.61146071	      1.91068305	      2.55452742	     -7.54784203	    -15.16172380	     -8.04465894	     36.77951665	     46.80184271	      0.00000000	      0.00000000	     23.48533234	    -15.93180066	      3.20454831	     70.49894797	     46.90015259	      0.00000000	      0.00000000
     13.36028571	     -3.11310472	     -1.81066586	     -3.04510493	      1.00859883	      0.93227660	      0.41748599	     36.10907158	     -6.34891963	     -8.01816135	     33.80098876	     33.80098876	     -2.18935115	     -9.59560528	      0.72903769	      6.04909508	     -2.10136988	    -11.55227790	     13.59581235	     13.59581235	     11.45825380	     -9.66728113	    -11.26475956	    -14.61383760	      1.97504353	      2.39572318	     -7.98764305	    -15.29822019	     -8.53483998	     33.68741840	     46.91711079	      0.00000000	      0.00000000	     23.95570230	    -16.29513186	      2.81030170	     73.84490672	     47.01646845	      0.00000000	      0.00000000
     13.37200000	     -3.13611003	     -1.79132031	     -3.04210414	      1.00920285	      0.93145885	      0.41765230	     34.88658683	     -6.08359482	     -8.56777165	     28.68117510	     28.68117510	     -1.83399173	     -7.33750020	      1.46153218	      5.28263680	     -2.03246541	    -11.61385662	     13.27927923	     13.27927923	     11.78916228	     -9.43504436	    -11.52353439	    -14.60941487	      2.06653180	      2.55464047	     -9.21357618	    -15.59506151	     -8.69442466	     32.36729062	     46.96087021	      0.00000000	      0.00000000	     24.93704272	    -16.28183482	      2.53671643	     75.88955854	     47.08656549	      0.00000000	      0.00000000
     13.38371429	     -3.10974878	     -1.52988050	     -3.04827902	      1.01023465	      0.93039061	      0.41784628	     33.73241216	     -6.16413733	     -9.41765228	     24.19264332	     24.19264332	     -0.94733388	     -4.22850213	      3.27643395	      4.31692622	     -1.69347259	    -11.91113303	     12.71534594	     12.71534594	     12.07263411	     -8.78507092	    -11.99575887	    -14.64605491	      1.80931353	      2.35416927	     -9.82980924	    -15.64607633	     -9.33158342	     30.11792208	     47.05519300	      0.00000000	      0.00000000	     25.04586331	    -16.72546413	      2.16075876	     80.03459567	     47.22200977	      0.00000000	      0.00000000
     13.39542857	     -3.07284019	     -1.43029312	     -2.98409427	      1.01150169	      0.92918231	      0.41825901	     32.41269329	     -5.92278019	    -10.00543907	     19.85812981	     19.85812981	     -0.57055810	     -2.26686709	      4.65286493	      3.49180355	     -1.55415195	    -11.90018916	     12.47807053	     12.47807053	     12.47850700	     -8.57603780	    -12.20797983	    -14.57582272	      1.76606415	      2.52664458	    -11.12328525	    -15.79500375	     -9.44835547	     29.28505039	     47.07861571	      0.00000000	      0.00000000	     25.91577409	    -16.53865335	      1.94585725	     81.93312588	     47.28470700	      0.00000000	      0.00000000
